<?xml version="1.0" standalone="no"?>
<svg xmlns:xlink="http://www.w3.org/1999/xlink" id="wave" style="transform:rotate(0deg); transition: 0.3s" viewBox="0 0 1440 370" version="1.1" xmlns="http://www.w3.org/2000/svg"><defs><linearGradient id="sw-gradient-0" x1="0" x2="0" y1="1" y2="0"><stop stop-color="rgba(255, 255, 255, 1)" offset="0%"/><stop stop-color="rgba(255, 255, 255, 1)" offset="100%"/></linearGradient></defs><path style="transform:translate(0, 0px); opacity:1" fill="url(#sw-gradient-0)" d="M0,74L80,117.2C160,160,320,247,480,246.7C640,247,800,160,960,104.8C1120,49,1280,25,1440,61.7C1600,99,1760,197,1920,209.7C2080,222,2240,148,2400,111C2560,74,2720,74,2880,67.8C3040,62,3200,49,3360,74C3520,99,3680,160,3840,154.2C4000,148,4160,74,4320,61.7C4480,49,4640,99,4800,98.7C4960,99,5120,49,5280,55.5C5440,62,5600,123,5760,160.3C5920,197,6080,210,6240,234.3C6400,259,6560,296,6720,259C6880,222,7040,111,7200,61.7C7360,12,7520,25,7680,24.7C7840,25,8000,12,8160,61.7C8320,111,8480,222,8640,228.2C8800,234,8960,136,9120,111C9280,86,9440,136,9600,154.2C9760,173,9920,160,10080,135.7C10240,111,10400,74,10560,74C10720,74,10880,111,11040,111C11200,111,11360,74,11440,55.5L11520,37L11520,370L11440,370C11360,370,11200,370,11040,370C10880,370,10720,370,10560,370C10400,370,10240,370,10080,370C9920,370,9760,370,9600,370C9440,370,9280,370,9120,370C8960,370,8800,370,8640,370C8480,370,8320,370,8160,370C8000,370,7840,370,7680,370C7520,370,7360,370,7200,370C7040,370,6880,370,6720,370C6560,370,6400,370,6240,370C6080,370,5920,370,5760,370C5600,370,5440,370,5280,370C5120,370,4960,370,4800,370C4640,370,4480,370,4320,370C4160,370,4000,370,3840,370C3680,370,3520,370,3360,370C3200,370,3040,370,2880,370C2720,370,2560,370,2400,370C2240,370,2080,370,1920,370C1760,370,1600,370,1440,370C1280,370,1120,370,960,370C800,370,640,370,480,370C320,370,160,370,80,370L0,370Z"/></svg>