<?xml version="1.0" standalone="no"?>
<svg xmlns:xlink="http://www.w3.org/1999/xlink" id="wave" style="transform:rotate(0deg); transition: 0.3s" viewBox="0 0 1440 220" version="1.1" xmlns="http://www.w3.org/2000/svg"><defs><linearGradient id="sw-gradient-0" x1="0" x2="0" y1="1" y2="0"><stop stop-color="rgba(255, 0, 0, 1)" offset="0%"/><stop stop-color="rgba(61.777, 0, 0, 1)" offset="100%"/></linearGradient></defs><path style="transform:translate(0, 0px); opacity:1" fill="url(#sw-gradient-0)" d="M0,154L48,146.7C96,139,192,125,288,117.3C384,110,480,110,576,106.3C672,103,768,95,864,80.7C960,66,1056,44,1152,36.7C1248,29,1344,37,1440,44C1536,51,1632,59,1728,80.7C1824,103,1920,139,2016,132C2112,125,2208,73,2304,77C2400,81,2496,139,2592,135.7C2688,132,2784,66,2880,47.7C2976,29,3072,59,3168,91.7C3264,125,3360,161,3456,154C3552,147,3648,95,3744,80.7C3840,66,3936,88,4032,102.7C4128,117,4224,125,4320,113.7C4416,103,4512,73,4608,77C4704,81,4800,117,4896,135.7C4992,154,5088,154,5184,135.7C5280,117,5376,81,5472,77C5568,73,5664,103,5760,113.7C5856,125,5952,117,6048,95.3C6144,73,6240,37,6336,51.3C6432,66,6528,132,6624,139.3C6720,147,6816,95,6864,69.7L6912,44L6912,220L6864,220C6816,220,6720,220,6624,220C6528,220,6432,220,6336,220C6240,220,6144,220,6048,220C5952,220,5856,220,5760,220C5664,220,5568,220,5472,220C5376,220,5280,220,5184,220C5088,220,4992,220,4896,220C4800,220,4704,220,4608,220C4512,220,4416,220,4320,220C4224,220,4128,220,4032,220C3936,220,3840,220,3744,220C3648,220,3552,220,3456,220C3360,220,3264,220,3168,220C3072,220,2976,220,2880,220C2784,220,2688,220,2592,220C2496,220,2400,220,2304,220C2208,220,2112,220,2016,220C1920,220,1824,220,1728,220C1632,220,1536,220,1440,220C1344,220,1248,220,1152,220C1056,220,960,220,864,220C768,220,672,220,576,220C480,220,384,220,288,220C192,220,96,220,48,220L0,220Z"/></svg>