<?xml version="1.0" standalone="no"?>
<svg xmlns:xlink="http://www.w3.org/1999/xlink" id="wave" style="transform:rotate(0deg); transition: 0.3s" viewBox="0 0 1440 100" version="1.1" xmlns="http://www.w3.org/2000/svg"><defs><linearGradient id="sw-gradient-0" x1="0" x2="0" y1="1" y2="0"><stop stop-color="rgba(255, 255, 255, 1)" offset="0%"/><stop stop-color="rgba(255, 255, 255, 1)" offset="100%"/></linearGradient></defs><path style="transform:translate(0, 0px); opacity:1" fill="url(#sw-gradient-0)" d="M0,70L48,66.7C96,63,192,57,288,53.3C384,50,480,50,576,48.3C672,47,768,43,864,36.7C960,30,1056,20,1152,16.7C1248,13,1344,17,1440,20C1536,23,1632,27,1728,36.7C1824,47,1920,63,2016,60C2112,57,2208,33,2304,35C2400,37,2496,63,2592,61.7C2688,60,2784,30,2880,21.7C2976,13,3072,27,3168,41.7C3264,57,3360,73,3456,70C3552,67,3648,43,3744,36.7C3840,30,3936,40,4032,46.7C4128,53,4224,57,4320,51.7C4416,47,4512,33,4608,35C4704,37,4800,53,4896,61.7C4992,70,5088,70,5184,61.7C5280,53,5376,37,5472,35C5568,33,5664,47,5760,51.7C5856,57,5952,53,6048,43.3C6144,33,6240,17,6336,23.3C6432,30,6528,60,6624,63.3C6720,67,6816,43,6864,31.7L6912,20L6912,100L6864,100C6816,100,6720,100,6624,100C6528,100,6432,100,6336,100C6240,100,6144,100,6048,100C5952,100,5856,100,5760,100C5664,100,5568,100,5472,100C5376,100,5280,100,5184,100C5088,100,4992,100,4896,100C4800,100,4704,100,4608,100C4512,100,4416,100,4320,100C4224,100,4128,100,4032,100C3936,100,3840,100,3744,100C3648,100,3552,100,3456,100C3360,100,3264,100,3168,100C3072,100,2976,100,2880,100C2784,100,2688,100,2592,100C2496,100,2400,100,2304,100C2208,100,2112,100,2016,100C1920,100,1824,100,1728,100C1632,100,1536,100,1440,100C1344,100,1248,100,1152,100C1056,100,960,100,864,100C768,100,672,100,576,100C480,100,384,100,288,100C192,100,96,100,48,100L0,100Z"/></svg>