<?xml version="1.0" standalone="no"?>
<svg xmlns:xlink="http://www.w3.org/1999/xlink" id="wave" style="transform:rotate(180deg); transition: 0.3s" viewBox="0 0 1440 280" version="1.1" xmlns="http://www.w3.org/2000/svg"><defs><linearGradient id="sw-gradient-0" x1="0" x2="0" y1="1" y2="0"><stop stop-color="rgba(240, 235, 221, 1)" offset="0%"/><stop stop-color="rgba(240, 235, 221, 1)" offset="100%"/></linearGradient></defs><path style="transform:translate(0, 0px); opacity:1" fill="url(#sw-gradient-0)" d="M0,168L80,172.7C160,177,320,187,480,168C640,149,800,103,960,84C1120,65,1280,75,1440,79.3C1600,84,1760,84,1920,98C2080,112,2240,140,2400,158.7C2560,177,2720,187,2880,172.7C3040,159,3200,121,3360,93.3C3520,65,3680,47,3840,65.3C4000,84,4160,140,4320,149.3C4480,159,4640,121,4800,93.3C4960,65,5120,47,5280,70C5440,93,5600,159,5760,158.7C5920,159,6080,93,6240,88.7C6400,84,6560,140,6720,172.7C6880,205,7040,215,7200,210C7360,205,7520,187,7680,149.3C7840,112,8000,56,8160,60.7C8320,65,8480,131,8640,135.3C8800,140,8960,84,9120,74.7C9280,65,9440,103,9600,107.3C9760,112,9920,84,10080,70C10240,56,10400,56,10560,70C10720,84,10880,112,11040,126C11200,140,11360,140,11440,140L11520,140L11520,280L11440,280C11360,280,11200,280,11040,280C10880,280,10720,280,10560,280C10400,280,10240,280,10080,280C9920,280,9760,280,9600,280C9440,280,9280,280,9120,280C8960,280,8800,280,8640,280C8480,280,8320,280,8160,280C8000,280,7840,280,7680,280C7520,280,7360,280,7200,280C7040,280,6880,280,6720,280C6560,280,6400,280,6240,280C6080,280,5920,280,5760,280C5600,280,5440,280,5280,280C5120,280,4960,280,4800,280C4640,280,4480,280,4320,280C4160,280,4000,280,3840,280C3680,280,3520,280,3360,280C3200,280,3040,280,2880,280C2720,280,2560,280,2400,280C2240,280,2080,280,1920,280C1760,280,1600,280,1440,280C1280,280,1120,280,960,280C800,280,640,280,480,280C320,280,160,280,80,280L0,280Z"/></svg>