<?xml version="1.0" standalone="no"?>
<svg xmlns:xlink="http://www.w3.org/1999/xlink" id="wave" style="transform:rotate(180deg); transition: 0.3s" viewBox="0 0 1440 490" version="1.1" xmlns="http://www.w3.org/2000/svg"><defs><linearGradient id="sw-gradient-0" x1="0" x2="0" y1="1" y2="0"><stop stop-color="rgba(240, 235, 221, 1)" offset="0%"/><stop stop-color="rgba(240, 235, 221, 1)" offset="100%"/></linearGradient></defs><path style="transform:translate(0, 0px); opacity:1" fill="url(#sw-gradient-0)" d="M0,294L80,302.2C160,310,320,327,480,294C640,261,800,180,960,147C1120,114,1280,131,1440,138.8C1600,147,1760,147,1920,171.5C2080,196,2240,245,2400,277.7C2560,310,2720,327,2880,302.2C3040,278,3200,212,3360,163.3C3520,114,3680,82,3840,114.3C4000,147,4160,245,4320,261.3C4480,278,4640,212,4800,163.3C4960,114,5120,82,5280,122.5C5440,163,5600,278,5760,277.7C5920,278,6080,163,6240,155.2C6400,147,6560,245,6720,302.2C6880,359,7040,376,7200,367.5C7360,359,7520,327,7680,261.3C7840,196,8000,98,8160,106.2C8320,114,8480,229,8640,236.8C8800,245,8960,147,9120,130.7C9280,114,9440,180,9600,187.8C9760,196,9920,147,10080,122.5C10240,98,10400,98,10560,122.5C10720,147,10880,196,11040,220.5C11200,245,11360,245,11440,245L11520,245L11520,490L11440,490C11360,490,11200,490,11040,490C10880,490,10720,490,10560,490C10400,490,10240,490,10080,490C9920,490,9760,490,9600,490C9440,490,9280,490,9120,490C8960,490,8800,490,8640,490C8480,490,8320,490,8160,490C8000,490,7840,490,7680,490C7520,490,7360,490,7200,490C7040,490,6880,490,6720,490C6560,490,6400,490,6240,490C6080,490,5920,490,5760,490C5600,490,5440,490,5280,490C5120,490,4960,490,4800,490C4640,490,4480,490,4320,490C4160,490,4000,490,3840,490C3680,490,3520,490,3360,490C3200,490,3040,490,2880,490C2720,490,2560,490,2400,490C2240,490,2080,490,1920,490C1760,490,1600,490,1440,490C1280,490,1120,490,960,490C800,490,640,490,480,490C320,490,160,490,80,490L0,490Z"/></svg>